# File created by Blade
# Date/Time:  Wed Jan 21 14:43:55 2015
# Frame Rate: 120.000 fps
#------------------------------------------------------
:FULLY-SPECIFIED
:DEGREES
1650
root 19.659107 35.558783 -20.347343 -173.028476 -1.403445 181.863946
Spine -17.591298 1.140437 -0.101759
Head 6.257080 -1.547955 1.162220
LeftShoulder -6.864521 -37.499602 22.668884
LeftArm 18.622956 5.659025 3.768076
LeftForeArm 4.006864 0.000000 22.808432
LeftHand -5.461710 -0.000000 0.497256
LeftHandThumb1 -26.253704 0.000000 33.147579
RightShoulder -8.189045 2.125207 -15.473384
RightArm 14.566551 33.241931 1.243733
RightForeArm -39.408705 -0.000000 7.251743
RightHand 3.075535 -0.000000 -0.943931
RightHandThumb1 -24.326973 -0.000000 -32.862282
LeftUpLeg 0.227041 11.814104 3.738790
LeftLeg -7.121924 -0.000000 0.000000
LeftFoot -18.230934 27.327813 -12.961410
LeftToeBase 27.271169 -0.000000 -0.000000
RightUpLeg -0.847035 -8.867317 0.233068
RightLeg -2.902261 -0.000000 0.000000
RightFoot -19.852292 -22.237295 17.289554
RightToeBase 24.636544 -0.000000 -0.000000
1651
root 19.647120 35.558857 -20.342687 -173.003350 -1.465779 181.836295
Spine -17.608223 0.983982 -0.084765
Head 6.243664 -1.457722 1.120112
LeftShoulder -6.847067 -37.421716 22.365688
LeftArm 18.240106 6.083516 3.453329
LeftForeArm 4.698281 -0.000000 21.557878
LeftHand -5.320671 -0.000000 0.251082
LeftHandThumb1 -26.253704 0.000000 33.147579
RightShoulder -8.151381 2.425801 -15.340824
RightArm 14.242125 33.004827 1.586437
RightForeArm -39.575447 0.000000 7.249613
RightHand 2.911308 -0.000000 -0.686395
RightHandThumb1 -24.326973 -0.000000 -32.862282
LeftUpLeg 0.184586 11.785296 3.689116
LeftLeg -7.128335 -0.000000 0.000000
LeftFoot -18.205615 27.297591 -12.954654
LeftToeBase 27.282973 -0.000000 -0.000000
RightUpLeg -0.879356 -8.942860 0.200797
RightLeg -2.890898 -0.000000 0.000000
RightFoot -19.856740 -22.237401 17.261839
RightToeBase 24.716552 -0.000000 -0.000000
1652
root 19.634866 35.558884 -20.337087 -172.988099 -1.508714 181.801423
Spine -17.610790 0.858838 -0.076606
Head 6.218180 -1.369504 1.067196
LeftShoulder -6.778229 -37.268139 21.978580
LeftArm 17.865386 6.425071 3.224016
LeftForeArm 5.150063 -0.000000 20.289997
LeftHand -5.131777 -0.000000 0.163958
LeftHandThumb1 -26.253704 0.000000 33.147579
RightShoulder -8.143348 2.475848 -15.156965
RightArm 14.016646 33.098701 1.943341
RightForeArm -39.934410 -0.000000 7.182107
RightHand 2.576945 0.000000 -0.593045
RightHandThumb1 -24.326973 -0.000000 -32.862282
LeftUpLeg 0.149240 11.777548 3.631427
LeftLeg -7.124798 -0.000000 0.000000
LeftFoot -18.178253 27.261415 -12.930177
LeftToeBase 27.290581 -0.000000 -0.000000
RightUpLeg -0.895625 -9.005542 0.152060
RightLeg -2.890624 -0.000000 0.000000
RightFoot -19.846146 -22.216568 17.233597
RightToeBase 24.653214 -0.000000 -0.000000
1653
root 19.623442 35.559452 -20.331175 -172.963593 -1.541039 181.776261
Spine -17.622460 0.755207 -0.059775
Head 6.212743 -1.282893 0.990477
LeftShoulder -6.761312 -37.410784 21.734478
LeftArm 17.433283 6.965346 2.844349
LeftForeArm 5.603919 -0.000000 19.096293
LeftHand -5.070564 -0.000000 0.052620
LeftHandThumb1 -26.253704 0.000000 33.147579
RightShoulder -8.035668 2.184580 -14.900599
RightArm 13.571912 33.306791 2.060965
RightForeArm -40.024010 -0.000000 7.107217
RightHand 2.385706 -0.000000 -0.355153
RightHandThumb1 -24.326973 -0.000000 -32.862282
LeftUpLeg 0.100874 11.772341 3.581580
LeftLeg -7.110427 -0.000000 0.000000
LeftFoot -18.167633 27.241604 -12.917554
LeftToeBase 27.221728 -0.000000 -0.000000
RightUpLeg -0.928561 -9.017799 0.117286
RightLeg -2.884308 -0.000000 0.000000
RightFoot -19.854956 -22.252058 17.240166
RightToeBase 24.616203 -0.000000 -0.000000
1654
root 19.613005 35.560435 -20.326518 -172.949061 -1.565294 181.756171
Spine -17.614408 0.675103 -0.052875
Head 6.173296 -1.251618 0.957779
LeftShoulder -6.730375 -37.392516 21.465853
LeftArm 17.032428 7.381339 2.529039
LeftForeArm 5.816400 0.000000 17.868910
LeftHand -4.848351 -0.000000 -0.140305
LeftHandThumb1 -26.253704 0.000000 33.147579
RightShoulder -8.022400 2.380763 -14.776761
RightArm 13.264735 33.251822 2.391839
RightForeArm -40.359227 -0.000000 7.016701
RightHand 2.181525 -0.000000 -0.160084
RightHandThumb1 -24.326973 -0.000000 -32.862282
LeftUpLeg 0.065389 11.769966 3.542025
LeftLeg -7.095694 -0.000000 0.000000
LeftFoot -18.156752 27.213250 -12.920093
LeftToeBase 27.267361 -0.000000 -0.000000
RightUpLeg -0.948295 -9.059300 0.088497
RightLeg -2.886808 -0.000000 0.000000
RightFoot -19.826067 -22.211609 17.323690
RightToeBase 24.462239 -0.000000 -0.000000
1655
root 19.602685 35.560782 -20.322362 -172.934338 -1.582726 181.728699
Spine -17.610824 0.601085 -0.061459
Head 6.127750 -1.218197 0.931608
LeftShoulder -6.756478 -37.564214 21.331101
LeftArm 16.619940 8.010841 2.112117
LeftForeArm 6.201043 -0.000000 16.714805
LeftHand -4.994215 -0.000000 -0.123576
LeftHandThumb1 -26.253704 0.000000 33.147579
RightShoulder -7.998826 2.209883 -14.528940
RightArm 12.938047 33.356923 2.519745
RightForeArm -40.361303 -0.000000 6.871874
RightHand 2.173434 -0.000000 -0.028439
RightHandThumb1 -24.326973 -0.000000 -32.862282
LeftUpLeg 0.029553 11.759317 3.493824
LeftLeg -7.074498 -0.000000 0.000000
LeftFoot -18.156348 27.207906 -12.904637
LeftToeBase 27.305409 -0.000000 -0.000000
RightUpLeg -0.973884 -9.101811 0.052135
RightLeg -2.872391 -0.000000 0.000000
RightFoot -19.835343 -22.244268 17.213674
RightToeBase 24.598112 -0.000000 -0.000000
1656
root 19.593743 35.561476 -20.318276 -172.920130 -1.594068 181.708559
Spine -17.609815 0.526224 -0.070352
Head 6.098000 -1.138839 0.947626
LeftShoulder -6.776981 -37.517783 21.136547
LeftArm 16.267960 8.433169 1.798747
LeftForeArm 6.420997 -0.000000 15.558868
LeftHand -5.200730 -0.000000 -0.356671
LeftHandThumb1 -26.253704 0.000000 33.147579
RightShoulder -7.887692 2.262228 -14.320458
RightArm 12.421005 33.399999 2.613758
RightForeArm -40.621134 -0.000000 6.924885
RightHand 1.871438 -0.000000 0.466509
RightHandThumb1 -24.326973 -0.000000 -32.862282
LeftUpLeg -0.012455 11.754235 3.455363
LeftLeg -7.036330 -0.000000 0.000000
LeftFoot -18.162669 27.183465 -12.907843
LeftToeBase 27.274837 -0.000000 -0.000000
RightUpLeg -0.997931 -9.141530 0.024415
RightLeg -2.868348 -0.000000 0.000000
RightFoot -19.822620 -22.189312 17.307403
RightToeBase 24.492260 -0.000000 -0.000000
